<mxfile host="app.diagrams.net" modified="2023-06-26T08:08:58.069Z" agent="Mozilla/5.0 (Windows NT 10.0; Win64; x64) AppleWebKit/537.36 (KHTML, like Gecko) Chrome/114.0.0.0 Safari/537.36 Edg/114.0.1823.58" etag="EVrGaNkgLMpzWGLOFYfB" version="21.5.0" type="github">
  <diagram name="第 1 页" id="jmL1qz3mMwyt1vqhH-Wz">
    <mxGraphModel dx="1379" dy="764" grid="1" gridSize="10" guides="1" tooltips="1" connect="1" arrows="1" fold="1" page="1" pageScale="1" pageWidth="827" pageHeight="1169" math="0" shadow="0">
      <root>
        <mxCell id="0" />
        <mxCell id="1" parent="0" />
        <mxCell id="PY0WeYTTOWWtXDwvloO2-21" value="" style="rounded=0;whiteSpace=wrap;html=1;" vertex="1" parent="1">
          <mxGeometry x="30" y="25" width="160" height="310" as="geometry" />
        </mxCell>
        <mxCell id="PY0WeYTTOWWtXDwvloO2-16" value="用户1" style="shape=actor;whiteSpace=wrap;html=1;" vertex="1" parent="1">
          <mxGeometry x="80" y="70" width="40" height="60" as="geometry" />
        </mxCell>
        <mxCell id="PY0WeYTTOWWtXDwvloO2-18" value="用户2" style="shape=actor;whiteSpace=wrap;html=1;" vertex="1" parent="1">
          <mxGeometry x="80" y="150" width="40" height="60" as="geometry" />
        </mxCell>
        <mxCell id="PY0WeYTTOWWtXDwvloO2-19" value="用户3" style="shape=actor;whiteSpace=wrap;html=1;" vertex="1" parent="1">
          <mxGeometry x="80" y="230" width="40" height="60" as="geometry" />
        </mxCell>
        <mxCell id="PY0WeYTTOWWtXDwvloO2-24" value="" style="whiteSpace=wrap;html=1;" vertex="1" parent="1">
          <mxGeometry x="290" y="30" width="170" height="310" as="geometry" />
        </mxCell>
        <mxCell id="PY0WeYTTOWWtXDwvloO2-25" value="水表1" style="rounded=1;whiteSpace=wrap;html=1;" vertex="1" parent="1">
          <mxGeometry x="315" y="80" width="120" height="40" as="geometry" />
        </mxCell>
        <mxCell id="PY0WeYTTOWWtXDwvloO2-26" value="水表2" style="rounded=1;whiteSpace=wrap;html=1;" vertex="1" parent="1">
          <mxGeometry x="315" y="160" width="120" height="40" as="geometry" />
        </mxCell>
        <mxCell id="PY0WeYTTOWWtXDwvloO2-27" value="水表3" style="rounded=1;whiteSpace=wrap;html=1;" vertex="1" parent="1">
          <mxGeometry x="315" y="245" width="120" height="40" as="geometry" />
        </mxCell>
        <mxCell id="PY0WeYTTOWWtXDwvloO2-31" value="采集用户数据信息&lt;br&gt;水费、用水量等" style="text;html=1;align=center;verticalAlign=middle;resizable=0;points=[];autosize=1;strokeColor=none;fillColor=none;" vertex="1" parent="1">
          <mxGeometry x="180" y="120" width="120" height="40" as="geometry" />
        </mxCell>
        <mxCell id="PY0WeYTTOWWtXDwvloO2-33" value="&lt;font style=&quot;font-size: 14px;&quot;&gt;采集器/集中器&lt;/font&gt;" style="ellipse;shape=doubleEllipse;whiteSpace=wrap;html=1;aspect=fixed;" vertex="1" parent="1">
          <mxGeometry x="570" y="97.5" width="165" height="165" as="geometry" />
        </mxCell>
        <mxCell id="PY0WeYTTOWWtXDwvloO2-36" value="" style="edgeStyle=none;orthogonalLoop=1;jettySize=auto;html=1;rounded=0;entryX=0.006;entryY=0.468;entryDx=0;entryDy=0;entryPerimeter=0;" edge="1" parent="1" source="PY0WeYTTOWWtXDwvloO2-21" target="PY0WeYTTOWWtXDwvloO2-24">
          <mxGeometry width="100" relative="1" as="geometry">
            <mxPoint x="180" y="100" as="sourcePoint" />
            <mxPoint x="280" y="100" as="targetPoint" />
            <Array as="points" />
          </mxGeometry>
        </mxCell>
        <mxCell id="PY0WeYTTOWWtXDwvloO2-37" value="" style="edgeStyle=none;orthogonalLoop=1;jettySize=auto;html=1;rounded=0;" edge="1" parent="1" target="PY0WeYTTOWWtXDwvloO2-33">
          <mxGeometry width="100" relative="1" as="geometry">
            <mxPoint x="435" y="101.5" as="sourcePoint" />
            <mxPoint x="536" y="98.5" as="targetPoint" />
            <Array as="points" />
          </mxGeometry>
        </mxCell>
        <mxCell id="PY0WeYTTOWWtXDwvloO2-38" value="" style="edgeStyle=none;orthogonalLoop=1;jettySize=auto;html=1;rounded=0;entryX=0;entryY=0.5;entryDx=0;entryDy=0;" edge="1" parent="1" target="PY0WeYTTOWWtXDwvloO2-33">
          <mxGeometry width="100" relative="1" as="geometry">
            <mxPoint x="435" y="179.5" as="sourcePoint" />
            <mxPoint x="575" y="230" as="targetPoint" />
            <Array as="points" />
          </mxGeometry>
        </mxCell>
        <mxCell id="PY0WeYTTOWWtXDwvloO2-39" value="" style="edgeStyle=none;orthogonalLoop=1;jettySize=auto;html=1;rounded=0;exitX=1;exitY=0.25;exitDx=0;exitDy=0;" edge="1" parent="1" source="PY0WeYTTOWWtXDwvloO2-27">
          <mxGeometry width="100" relative="1" as="geometry">
            <mxPoint x="435" y="159.5" as="sourcePoint" />
            <mxPoint x="575" y="210" as="targetPoint" />
            <Array as="points" />
          </mxGeometry>
        </mxCell>
        <mxCell id="PY0WeYTTOWWtXDwvloO2-40" value="集中采集多个水表的数据" style="text;html=1;align=center;verticalAlign=middle;resizable=0;points=[];autosize=1;strokeColor=none;fillColor=none;" vertex="1" parent="1">
          <mxGeometry x="460" y="70" width="160" height="30" as="geometry" />
        </mxCell>
        <mxCell id="PY0WeYTTOWWtXDwvloO2-41" value="" style="endArrow=classic;html=1;rounded=0;exitX=0.5;exitY=1;exitDx=0;exitDy=0;entryX=0.555;entryY=-0.015;entryDx=0;entryDy=0;entryPerimeter=0;" edge="1" parent="1" source="PY0WeYTTOWWtXDwvloO2-33" target="PY0WeYTTOWWtXDwvloO2-46">
          <mxGeometry width="50" height="50" relative="1" as="geometry">
            <mxPoint x="650" y="310" as="sourcePoint" />
            <mxPoint x="650" y="520" as="targetPoint" />
          </mxGeometry>
        </mxCell>
        <mxCell id="PY0WeYTTOWWtXDwvloO2-42" value="" style="shape=link;html=1;rounded=0;" edge="1" parent="1">
          <mxGeometry width="100" relative="1" as="geometry">
            <mxPoint x="30" y="390" as="sourcePoint" />
            <mxPoint x="790" y="390" as="targetPoint" />
          </mxGeometry>
        </mxCell>
        <mxCell id="PY0WeYTTOWWtXDwvloO2-43" value="&lt;font style=&quot;font-size: 16px;&quot;&gt;硬件&lt;/font&gt;" style="text;html=1;align=center;verticalAlign=middle;resizable=0;points=[];autosize=1;strokeColor=none;fillColor=none;" vertex="1" parent="1">
          <mxGeometry x="710" y="38" width="60" height="30" as="geometry" />
        </mxCell>
        <mxCell id="PY0WeYTTOWWtXDwvloO2-44" value="&lt;font style=&quot;font-size: 16px;&quot;&gt;软件&lt;/font&gt;" style="text;html=1;align=center;verticalAlign=middle;resizable=0;points=[];autosize=1;strokeColor=none;fillColor=none;" vertex="1" parent="1">
          <mxGeometry x="710" y="410" width="60" height="30" as="geometry" />
        </mxCell>
        <mxCell id="PY0WeYTTOWWtXDwvloO2-46" value="&lt;font style=&quot;font-size: 14px;&quot;&gt;水/热表管理系统&lt;/font&gt;" style="ellipse;shape=doubleEllipse;whiteSpace=wrap;html=1;aspect=fixed;" vertex="1" parent="1">
          <mxGeometry x="540" y="530" width="200" height="200" as="geometry" />
        </mxCell>
        <mxCell id="PY0WeYTTOWWtXDwvloO2-47" value="数据通过kafka进行数据清洗与传递" style="text;html=1;align=center;verticalAlign=middle;resizable=0;points=[];autosize=1;strokeColor=none;fillColor=none;" vertex="1" parent="1">
          <mxGeometry x="435" y="440" width="210" height="30" as="geometry" />
        </mxCell>
        <mxCell id="PY0WeYTTOWWtXDwvloO2-45" value="1.网站可视化数据&lt;br&gt;2.远程操控下发指令" style="text;html=1;align=center;verticalAlign=middle;resizable=0;points=[];autosize=1;strokeColor=none;fillColor=none;" vertex="1" parent="1">
          <mxGeometry x="575" y="640" width="130" height="40" as="geometry" />
        </mxCell>
        <mxCell id="PY0WeYTTOWWtXDwvloO2-48" value="" style="endArrow=classic;html=1;rounded=0;exitX=0.705;exitY=0.025;exitDx=0;exitDy=0;exitPerimeter=0;" edge="1" parent="1" source="PY0WeYTTOWWtXDwvloO2-46">
          <mxGeometry width="50" height="50" relative="1" as="geometry">
            <mxPoint x="680" y="520" as="sourcePoint" />
            <mxPoint x="680" y="260" as="targetPoint" />
          </mxGeometry>
        </mxCell>
        <mxCell id="PY0WeYTTOWWtXDwvloO2-49" value="远程控制" style="text;html=1;align=center;verticalAlign=middle;resizable=0;points=[];autosize=1;strokeColor=none;fillColor=none;" vertex="1" parent="1">
          <mxGeometry x="685" y="450" width="70" height="30" as="geometry" />
        </mxCell>
        <mxCell id="PY0WeYTTOWWtXDwvloO2-50" value="数据存储在Mysql、lindorm数据库，以用来保存与展示" style="shape=ext;double=1;rounded=0;whiteSpace=wrap;html=1;" vertex="1" parent="1">
          <mxGeometry x="30" y="430" width="360" height="120" as="geometry" />
        </mxCell>
        <mxCell id="PY0WeYTTOWWtXDwvloO2-51" value="" style="endArrow=classic;html=1;rounded=0;exitX=0.1;exitY=0.17;exitDx=0;exitDy=0;exitPerimeter=0;entryX=1;entryY=0.417;entryDx=0;entryDy=0;entryPerimeter=0;" edge="1" parent="1" source="PY0WeYTTOWWtXDwvloO2-46" target="PY0WeYTTOWWtXDwvloO2-50">
          <mxGeometry width="50" height="50" relative="1" as="geometry">
            <mxPoint x="340" y="620" as="sourcePoint" />
            <mxPoint x="390" y="570" as="targetPoint" />
          </mxGeometry>
        </mxCell>
        <mxCell id="PY0WeYTTOWWtXDwvloO2-52" value="制定采集策略、定时任务 定时对数据进行采集&amp;nbsp;&lt;br&gt;下发远程命令，如开关阀等操作" style="shape=ext;double=1;rounded=0;whiteSpace=wrap;html=1;" vertex="1" parent="1">
          <mxGeometry y="610" width="400" height="110" as="geometry" />
        </mxCell>
        <mxCell id="PY0WeYTTOWWtXDwvloO2-53" value="" style="endArrow=classic;html=1;rounded=0;entryX=0;entryY=0.65;entryDx=0;entryDy=0;entryPerimeter=0;" edge="1" parent="1" target="PY0WeYTTOWWtXDwvloO2-46">
          <mxGeometry width="50" height="50" relative="1" as="geometry">
            <mxPoint x="400" y="670" as="sourcePoint" />
            <mxPoint x="450" y="620" as="targetPoint" />
          </mxGeometry>
        </mxCell>
      </root>
    </mxGraphModel>
  </diagram>
</mxfile>
